<svg xmlns="http://www.w3.org/2000/svg" xmlns:xlink="http://www.w3.org/1999/xlink" width="500" zoomAndPan="magnify" viewBox="0 0 375 374.999991" height="500" preserveAspectRatio="xMidYMid meet" version="1.0"><rect x="-37.5" width="450" fill="#ffffff" y="-37.499999" height="449.999989" fill-opacity="1"/><rect x="-37.5" width="450" fill="#ffffff" y="-37.499999" height="449.999989" fill-opacity="1"/><rect x="-37.5" width="450" fill="#ffffff" y="-37.499999" height="449.999989" fill-opacity="1"/><rect x="-37.5" width="450" fill="#ffffff" y="-37.499999" height="449.999989" fill-opacity="1"/><path fill="#1e1c4a" d="M 65.523438 390.527344 L 26.148438 337.277344 L -13.226562 390.527344 L 65.523438 390.527344 " fill-opacity="1" fill-rule="nonzero"/><path fill="#1e1c4a" d="M 125.296875 390.527344 L 85.921875 337.277344 L 46.546875 390.527344 L 125.296875 390.527344 " fill-opacity="1" fill-rule="nonzero"/><path fill="#1e1c4a" d="M 181.800781 390.527344 L 142.425781 337.277344 L 103.054688 390.527344 L 181.800781 390.527344 " fill-opacity="1" fill-rule="nonzero"/><path fill="#1e1c4a" d="M 241.578125 390.527344 L 202.203125 337.277344 L 162.828125 390.527344 L 241.578125 390.527344 " fill-opacity="1" fill-rule="nonzero"/><path fill="#1e1c4a" d="M 288.902344 390.527344 L 249.527344 337.277344 L 210.152344 390.527344 L 288.902344 390.527344 " fill-opacity="1" fill-rule="nonzero"/><path fill="#1e1c4a" d="M 348.679688 390.527344 L 309.304688 337.277344 L 269.929688 390.527344 L 348.679688 390.527344 " fill-opacity="1" fill-rule="nonzero"/><path fill="#1e1c4a" d="M 405.183594 390.527344 L 365.808594 337.277344 L 326.433594 390.527344 L 405.183594 390.527344 " fill-opacity="1" fill-rule="nonzero"/></svg>